<mxfile host="app.diagrams.net" modified="2022-08-03T05:44:50.997Z" agent="5.0 (Macintosh; Intel Mac OS X 10_15_7) AppleWebKit/537.36 (KHTML, like Gecko) Chrome/103.0.5060.53 Safari/537.36" etag="wX6ayBUyQp_53HtTm0El" version="20.2.2" type="github">
  <diagram id="C5RBs43oDa-KdzZeNtuy" name="Page-1">
    <mxGraphModel dx="2066" dy="688" grid="1" gridSize="10" guides="1" tooltips="1" connect="1" arrows="1" fold="1" page="1" pageScale="1" pageWidth="827" pageHeight="1169" math="0" shadow="0">
      <root>
        <mxCell id="WIyWlLk6GJQsqaUBKTNV-0" />
        <mxCell id="WIyWlLk6GJQsqaUBKTNV-1" parent="WIyWlLk6GJQsqaUBKTNV-0" />
        <mxCell id="I4LHXoDgAtFz_a_6ORGC-27" style="edgeStyle=orthogonalEdgeStyle;rounded=0;orthogonalLoop=1;jettySize=auto;html=1;exitX=0.5;exitY=0;exitDx=0;exitDy=0;" edge="1" parent="WIyWlLk6GJQsqaUBKTNV-1" source="I4LHXoDgAtFz_a_6ORGC-0">
          <mxGeometry relative="1" as="geometry">
            <mxPoint x="400" y="60" as="targetPoint" />
          </mxGeometry>
        </mxCell>
        <mxCell id="I4LHXoDgAtFz_a_6ORGC-0" value="Livros" style="swimlane;fontStyle=1;align=center;verticalAlign=top;childLayout=stackLayout;horizontal=1;startSize=26;horizontalStack=0;resizeParent=1;resizeParentMax=0;resizeLast=0;collapsible=1;marginBottom=0;" vertex="1" parent="WIyWlLk6GJQsqaUBKTNV-1">
          <mxGeometry x="320" y="80" width="160" height="206" as="geometry" />
        </mxCell>
        <mxCell id="I4LHXoDgAtFz_a_6ORGC-1" value="-id: Int&#xa;-título: String&#xa;-subtitulo: String?&#xa;-autor: String&#xa;-ISBN: Int&#xa;-dataLançamento: Date&#xa;-numeroPaginas: Int&#xa;-descricao: String&#xa;-preço: String&#xa;-quantidade: Int" style="text;strokeColor=none;fillColor=none;align=left;verticalAlign=top;spacingLeft=4;spacingRight=4;overflow=hidden;rotatable=0;points=[[0,0.5],[1,0.5]];portConstraint=eastwest;" vertex="1" parent="I4LHXoDgAtFz_a_6ORGC-0">
          <mxGeometry y="26" width="160" height="144" as="geometry" />
        </mxCell>
        <mxCell id="I4LHXoDgAtFz_a_6ORGC-2" value="" style="line;strokeWidth=1;fillColor=none;align=left;verticalAlign=middle;spacingTop=-1;spacingLeft=3;spacingRight=3;rotatable=0;labelPosition=right;points=[];portConstraint=eastwest;" vertex="1" parent="I4LHXoDgAtFz_a_6ORGC-0">
          <mxGeometry y="170" width="160" height="10" as="geometry" />
        </mxCell>
        <mxCell id="I4LHXoDgAtFz_a_6ORGC-3" value="+ method(type): type" style="text;strokeColor=none;fillColor=none;align=left;verticalAlign=top;spacingLeft=4;spacingRight=4;overflow=hidden;rotatable=0;points=[[0,0.5],[1,0.5]];portConstraint=eastwest;" vertex="1" parent="I4LHXoDgAtFz_a_6ORGC-0">
          <mxGeometry y="180" width="160" height="26" as="geometry" />
        </mxCell>
        <mxCell id="I4LHXoDgAtFz_a_6ORGC-4" value="LivroImpresso: Livros" style="swimlane;fontStyle=1;align=center;verticalAlign=top;childLayout=stackLayout;horizontal=1;startSize=26;horizontalStack=0;resizeParent=1;resizeParentMax=0;resizeLast=0;collapsible=1;marginBottom=0;" vertex="1" parent="WIyWlLk6GJQsqaUBKTNV-1">
          <mxGeometry x="190" y="360" width="160" height="260" as="geometry" />
        </mxCell>
        <mxCell id="I4LHXoDgAtFz_a_6ORGC-5" value="-id: Int&#xa;-título: String&#xa;-subtitulo: String?&#xa;-autor: String&#xa;-ISBN: Int&#xa;-dataLançamento: Date&#xa;-numeroPaginas: Int&#xa;-descricao: String&#xa;-preço: String&#xa;-quantidade: Int&#xa;-tipoLivro: String" style="text;strokeColor=none;fillColor=none;align=left;verticalAlign=top;spacingLeft=4;spacingRight=4;overflow=hidden;rotatable=0;points=[[0,0.5],[1,0.5]];portConstraint=eastwest;" vertex="1" parent="I4LHXoDgAtFz_a_6ORGC-4">
          <mxGeometry y="26" width="160" height="164" as="geometry" />
        </mxCell>
        <mxCell id="I4LHXoDgAtFz_a_6ORGC-6" value="" style="line;strokeWidth=1;fillColor=none;align=left;verticalAlign=middle;spacingTop=-1;spacingLeft=3;spacingRight=3;rotatable=0;labelPosition=right;points=[];portConstraint=eastwest;" vertex="1" parent="I4LHXoDgAtFz_a_6ORGC-4">
          <mxGeometry y="190" width="160" height="8" as="geometry" />
        </mxCell>
        <mxCell id="I4LHXoDgAtFz_a_6ORGC-7" value="+detalhesLivro()&#xa;+escolherQuantidade()&#xa;+adicionaCarrinho()&#xa;" style="text;strokeColor=none;fillColor=none;align=left;verticalAlign=top;spacingLeft=4;spacingRight=4;overflow=hidden;rotatable=0;points=[[0,0.5],[1,0.5]];portConstraint=eastwest;" vertex="1" parent="I4LHXoDgAtFz_a_6ORGC-4">
          <mxGeometry y="198" width="160" height="62" as="geometry" />
        </mxCell>
        <mxCell id="I4LHXoDgAtFz_a_6ORGC-8" value="E-book: Livros" style="swimlane;fontStyle=1;align=center;verticalAlign=top;childLayout=stackLayout;horizontal=1;startSize=26;horizontalStack=0;resizeParent=1;resizeParentMax=0;resizeLast=0;collapsible=1;marginBottom=0;" vertex="1" parent="WIyWlLk6GJQsqaUBKTNV-1">
          <mxGeometry x="460" y="360.5" width="160" height="240" as="geometry" />
        </mxCell>
        <mxCell id="I4LHXoDgAtFz_a_6ORGC-9" value="-id: Int&#xa;-título: String&#xa;-subtitulo: String?&#xa;-autor: String&#xa;-ISBN: Int&#xa;-dataLançamento: Date&#xa;-numeroPaginas: Int&#xa;-descricao: String&#xa;-preço: String&#xa;-quantidade: Int" style="text;strokeColor=none;fillColor=none;align=left;verticalAlign=top;spacingLeft=4;spacingRight=4;overflow=hidden;rotatable=0;points=[[0,0.5],[1,0.5]];portConstraint=eastwest;" vertex="1" parent="I4LHXoDgAtFz_a_6ORGC-8">
          <mxGeometry y="26" width="160" height="164" as="geometry" />
        </mxCell>
        <mxCell id="I4LHXoDgAtFz_a_6ORGC-10" value="" style="line;strokeWidth=1;fillColor=none;align=left;verticalAlign=middle;spacingTop=-1;spacingLeft=3;spacingRight=3;rotatable=0;labelPosition=right;points=[];portConstraint=eastwest;" vertex="1" parent="I4LHXoDgAtFz_a_6ORGC-8">
          <mxGeometry y="190" width="160" height="8" as="geometry" />
        </mxCell>
        <mxCell id="I4LHXoDgAtFz_a_6ORGC-11" value="+detalhesLivro()&#xa;+adicionaCarrinho()&#xa;" style="text;strokeColor=none;fillColor=none;align=left;verticalAlign=top;spacingLeft=4;spacingRight=4;overflow=hidden;rotatable=0;points=[[0,0.5],[1,0.5]];portConstraint=eastwest;" vertex="1" parent="I4LHXoDgAtFz_a_6ORGC-8">
          <mxGeometry y="198" width="160" height="42" as="geometry" />
        </mxCell>
        <mxCell id="I4LHXoDgAtFz_a_6ORGC-17" value="Extends" style="endArrow=block;endSize=16;endFill=0;html=1;rounded=0;exitX=0.456;exitY=-0.012;exitDx=0;exitDy=0;exitPerimeter=0;entryX=0.269;entryY=1.115;entryDx=0;entryDy=0;entryPerimeter=0;" edge="1" parent="WIyWlLk6GJQsqaUBKTNV-1" source="I4LHXoDgAtFz_a_6ORGC-4" target="I4LHXoDgAtFz_a_6ORGC-3">
          <mxGeometry width="160" relative="1" as="geometry">
            <mxPoint x="330" y="350" as="sourcePoint" />
            <mxPoint x="490" y="350" as="targetPoint" />
          </mxGeometry>
        </mxCell>
        <mxCell id="I4LHXoDgAtFz_a_6ORGC-18" value="Extends" style="endArrow=block;endSize=16;endFill=0;html=1;rounded=0;entryX=0.719;entryY=1.038;entryDx=0;entryDy=0;entryPerimeter=0;exitX=0.5;exitY=0;exitDx=0;exitDy=0;" edge="1" parent="WIyWlLk6GJQsqaUBKTNV-1" source="I4LHXoDgAtFz_a_6ORGC-8" target="I4LHXoDgAtFz_a_6ORGC-3">
          <mxGeometry width="160" relative="1" as="geometry">
            <mxPoint x="500" y="230" as="sourcePoint" />
            <mxPoint x="600" y="210" as="targetPoint" />
          </mxGeometry>
        </mxCell>
        <mxCell id="I4LHXoDgAtFz_a_6ORGC-19" value="ItensCarrinho" style="swimlane;fontStyle=1;align=center;verticalAlign=top;childLayout=stackLayout;horizontal=1;startSize=26;horizontalStack=0;resizeParent=1;resizeParentMax=0;resizeLast=0;collapsible=1;marginBottom=0;" vertex="1" parent="WIyWlLk6GJQsqaUBKTNV-1">
          <mxGeometry x="300" y="660" width="160" height="60" as="geometry" />
        </mxCell>
        <mxCell id="I4LHXoDgAtFz_a_6ORGC-21" value="" style="line;strokeWidth=1;fillColor=none;align=left;verticalAlign=middle;spacingTop=-1;spacingLeft=3;spacingRight=3;rotatable=0;labelPosition=right;points=[];portConstraint=eastwest;" vertex="1" parent="I4LHXoDgAtFz_a_6ORGC-19">
          <mxGeometry y="26" width="160" height="8" as="geometry" />
        </mxCell>
        <mxCell id="I4LHXoDgAtFz_a_6ORGC-22" value="+ method(type): type" style="text;strokeColor=none;fillColor=none;align=left;verticalAlign=top;spacingLeft=4;spacingRight=4;overflow=hidden;rotatable=0;points=[[0,0.5],[1,0.5]];portConstraint=eastwest;" vertex="1" parent="I4LHXoDgAtFz_a_6ORGC-19">
          <mxGeometry y="34" width="160" height="26" as="geometry" />
        </mxCell>
        <mxCell id="I4LHXoDgAtFz_a_6ORGC-23" value="Carrinho" style="swimlane;fontStyle=1;align=center;verticalAlign=top;childLayout=stackLayout;horizontal=1;startSize=26;horizontalStack=0;resizeParent=1;resizeParentMax=0;resizeLast=0;collapsible=1;marginBottom=0;" vertex="1" parent="WIyWlLk6GJQsqaUBKTNV-1">
          <mxGeometry x="300" y="880" width="160" height="86" as="geometry" />
        </mxCell>
        <mxCell id="I4LHXoDgAtFz_a_6ORGC-24" value="+ field: type" style="text;strokeColor=none;fillColor=none;align=left;verticalAlign=top;spacingLeft=4;spacingRight=4;overflow=hidden;rotatable=0;points=[[0,0.5],[1,0.5]];portConstraint=eastwest;" vertex="1" parent="I4LHXoDgAtFz_a_6ORGC-23">
          <mxGeometry y="26" width="160" height="26" as="geometry" />
        </mxCell>
        <mxCell id="I4LHXoDgAtFz_a_6ORGC-25" value="" style="line;strokeWidth=1;fillColor=none;align=left;verticalAlign=middle;spacingTop=-1;spacingLeft=3;spacingRight=3;rotatable=0;labelPosition=right;points=[];portConstraint=eastwest;" vertex="1" parent="I4LHXoDgAtFz_a_6ORGC-23">
          <mxGeometry y="52" width="160" height="8" as="geometry" />
        </mxCell>
        <mxCell id="I4LHXoDgAtFz_a_6ORGC-26" value="+ method(type): type" style="text;strokeColor=none;fillColor=none;align=left;verticalAlign=top;spacingLeft=4;spacingRight=4;overflow=hidden;rotatable=0;points=[[0,0.5],[1,0.5]];portConstraint=eastwest;" vertex="1" parent="I4LHXoDgAtFz_a_6ORGC-23">
          <mxGeometry y="60" width="160" height="26" as="geometry" />
        </mxCell>
      </root>
    </mxGraphModel>
  </diagram>
</mxfile>
